<svg width="1485" height="1627" viewBox="0 0 1485 1627" fill="none" xmlns="http://www.w3.org/2000/svg">
<path d="M159.625 1526.06H180.75C195 1526.06 206.292 1529.58 214.625 1536.62C223.625 1544.17 228.125 1555.17 228.125 1569.62C228.125 1584.08 223.75 1595.06 215 1602.56C206.833 1609.52 195.625 1613 181.375 1613H159.625V1526.06ZM215.312 1569.69C215.312 1547.31 203.521 1536.12 179.938 1536.12H172.125V1603H180.625C198.625 1603 209.583 1596.5 213.5 1583.5C214.708 1579.38 215.312 1574.77 215.312 1569.69ZM259.625 1529.75C259.625 1532.12 258.833 1533.96 257.25 1535.25C255.708 1536.5 253.771 1537.12 251.438 1537.12C249.104 1537.12 247.167 1536.5 245.625 1535.25C244.125 1533.96 243.375 1532.12 243.375 1529.75C243.375 1527.33 244.125 1525.5 245.625 1524.25C247.167 1523 249.104 1522.38 251.438 1522.38C253.771 1522.38 255.708 1523 257.25 1524.25C258.833 1525.5 259.625 1527.33 259.625 1529.75ZM245 1548.5H257.5V1613H245V1548.5ZM293 1614C287.792 1614 282.521 1613.62 277.188 1612.88V1601.81C282.604 1603.1 288.104 1603.75 293.688 1603.75C304.854 1603.75 310.438 1601.4 310.438 1596.69C310.438 1594.9 310 1593.56 309.125 1592.69C307.833 1591.31 305.792 1589.94 303 1588.56L293.875 1584.38C287.958 1581.42 284.125 1579.04 282.375 1577.25C279.083 1573.92 277.438 1569.96 277.438 1565.38C277.438 1560.21 279.833 1556 284.625 1552.75C289.792 1549.25 297.042 1547.5 306.375 1547.5C311.083 1547.5 315.833 1547.83 320.625 1548.5V1559.19C315.375 1558.23 310.792 1557.75 306.875 1557.75C303 1557.75 299.979 1558 297.812 1558.5C295.688 1559 294.083 1559.62 293 1560.38C291.292 1561.54 290.438 1563.06 290.438 1564.94C290.438 1566.77 291.021 1568.27 292.188 1569.44C293.396 1570.56 295.271 1571.79 297.812 1573.12L307 1577.56C313 1580.69 316.854 1583.08 318.562 1584.75C321.812 1587.92 323.438 1591.9 323.438 1596.69C323.438 1601.81 320.854 1605.94 315.688 1609.06C310.271 1612.35 302.708 1614 293 1614ZM387.5 1612.81C385 1613.6 380.667 1614 374.5 1614C368.333 1614 363.083 1613.25 358.75 1611.75C354.458 1610.25 350.792 1608.04 347.75 1605.12C341.458 1599.08 338.312 1590.71 338.312 1580C338.312 1569.62 342.083 1561.46 349.625 1555.5C356.375 1550.17 364.667 1547.5 374.5 1547.5C380.583 1547.5 384.75 1547.71 387 1548.12V1559.25C383.5 1558.12 379.5 1557.56 375 1557.56C370.542 1557.56 366.833 1558.19 363.875 1559.44C360.917 1560.65 358.5 1562.29 356.625 1564.38C353.083 1568.33 351.312 1573.54 351.312 1580C351.312 1590.92 355.25 1598.19 363.125 1601.81C365.917 1603.1 368.646 1603.75 371.312 1603.75C373.979 1603.75 376.021 1603.69 377.438 1603.56C378.896 1603.44 380.271 1603.27 381.562 1603.06C384.312 1602.6 386.292 1602.12 387.5 1601.62V1612.81ZM446.062 1559.94C443.771 1559.27 441.021 1558.94 437.812 1558.94C434.646 1558.94 432.042 1559.27 430 1559.94C427.958 1560.56 426.167 1561.33 424.625 1562.25C421.792 1563.92 419.729 1565.79 418.438 1567.88V1613H405.938V1548.5H417.938L418.438 1557.44C421.562 1553.52 426.125 1550.58 432.125 1548.62C434.292 1547.88 436.771 1547.5 439.562 1547.5C442.354 1547.5 444.521 1547.71 446.062 1548.12V1559.94ZM488.562 1614C464.979 1614 453.188 1602.48 453.188 1579.44C453.188 1569.52 456.458 1561.58 463 1555.62C468.875 1550.21 475.583 1547.5 483.125 1547.5C491.333 1547.5 497.75 1550.25 502.375 1555.75C506.667 1560.88 508.812 1567.73 508.812 1576.31V1581.19H466.188C466.188 1592.98 471 1600.19 480.625 1602.81C482.917 1603.44 486.438 1603.75 491.188 1603.75C495.979 1603.75 500.667 1603.1 505.25 1601.81V1612.38C500.667 1613.46 495.104 1614 488.562 1614ZM496.312 1572C496.312 1568 495.208 1564.62 493 1561.88C490.417 1558.71 486.854 1557.12 482.312 1557.12C477.521 1557.12 473.625 1558.65 470.625 1561.69C467.875 1564.52 466.5 1567.96 466.5 1572H496.312ZM552.688 1614C529.104 1614 517.312 1602.48 517.312 1579.44C517.312 1569.52 520.583 1561.58 527.125 1555.62C533 1550.21 539.708 1547.5 547.25 1547.5C555.458 1547.5 561.875 1550.25 566.5 1555.75C570.792 1560.88 572.938 1567.73 572.938 1576.31V1581.19H530.312C530.312 1592.98 535.125 1600.19 544.75 1602.81C547.042 1603.44 550.562 1603.75 555.312 1603.75C560.104 1603.75 564.792 1603.1 569.375 1601.81V1612.38C564.792 1613.46 559.229 1614 552.688 1614ZM560.438 1572C560.438 1568 559.333 1564.62 557.125 1561.88C554.542 1558.71 550.979 1557.12 546.438 1557.12C541.646 1557.12 537.75 1558.65 534.75 1561.69C532 1564.52 530.625 1567.96 530.625 1572H560.438ZM609.875 1603.12C611.25 1603.62 613.333 1603.88 616.125 1603.88C618.917 1603.88 621.25 1603.54 623.125 1602.88V1612.88C622.25 1613.08 620.979 1613.21 619.312 1613.25L615.375 1613.38C614.5 1613.38 613.833 1613.38 613.375 1613.38C605.333 1613.38 599.396 1610.75 595.562 1605.5C592.479 1601.25 590.938 1595.62 590.938 1588.62V1558.06H581.688V1552.19L590.938 1548.5L593.938 1532.5H603.438V1548.5H623.438V1558.06H603.438V1588.56C603.438 1596.73 605.583 1601.58 609.875 1603.12ZM682.625 1526H738.812V1536.88H695.125V1562.5H728.188V1573H695.125V1602H738.812V1613H682.625V1526ZM772.688 1580.62L750.5 1548.5H764.688L780.062 1571.81L796.5 1548.5H810.5L786.5 1580.56L809.938 1613H795.812L779.375 1589.5L763.25 1613H749.062L772.688 1580.62ZM867.875 1612.81C865.375 1613.6 861.042 1614 854.875 1614C848.708 1614 843.458 1613.25 839.125 1611.75C834.833 1610.25 831.167 1608.04 828.125 1605.12C821.833 1599.08 818.688 1590.71 818.688 1580C818.688 1569.62 822.458 1561.46 830 1555.5C836.75 1550.17 845.042 1547.5 854.875 1547.5C860.958 1547.5 865.125 1547.71 867.375 1548.12V1559.25C863.875 1558.12 859.875 1557.56 855.375 1557.56C850.917 1557.56 847.208 1558.19 844.25 1559.44C841.292 1560.65 838.875 1562.29 837 1564.38C833.458 1568.33 831.688 1573.54 831.688 1580C831.688 1590.92 835.625 1598.19 843.5 1601.81C846.292 1603.1 849.021 1603.75 851.688 1603.75C854.354 1603.75 856.396 1603.69 857.812 1603.56C859.271 1603.44 860.646 1603.27 861.938 1603.06C864.688 1602.6 866.667 1602.12 867.875 1601.62V1612.81ZM915.562 1614C891.979 1614 880.188 1602.48 880.188 1579.44C880.188 1569.52 883.458 1561.58 890 1555.62C895.875 1550.21 902.583 1547.5 910.125 1547.5C918.333 1547.5 924.75 1550.25 929.375 1555.75C933.667 1560.88 935.812 1567.73 935.812 1576.31V1581.19H893.188C893.188 1592.98 898 1600.19 907.625 1602.81C909.917 1603.44 913.438 1603.75 918.188 1603.75C922.979 1603.75 927.667 1603.1 932.25 1601.81V1612.38C927.667 1613.46 922.104 1614 915.562 1614ZM923.312 1572C923.312 1568 922.208 1564.62 920 1561.88C917.417 1558.71 913.854 1557.12 909.312 1557.12C904.521 1557.12 900.625 1558.65 897.625 1561.69C894.875 1564.52 893.5 1567.96 893.5 1572H923.312ZM952.25 1520H964.75V1588.56C964.75 1596.81 966.625 1601.67 970.375 1603.12C971.625 1603.62 972.958 1603.88 974.375 1603.88C975.792 1603.88 977.062 1603.71 978.188 1603.38V1613L975.875 1613.25C975.125 1613.33 974.396 1613.38 973.688 1613.38C965.688 1613.38 959.917 1610.75 956.375 1605.5C953.625 1601.38 952.25 1595.75 952.25 1588.62V1520ZM995 1520H1007.5V1588.56C1007.5 1596.81 1009.38 1601.67 1013.12 1603.12C1014.38 1603.62 1015.71 1603.88 1017.12 1603.88C1018.54 1603.88 1019.81 1603.71 1020.94 1603.38V1613L1018.62 1613.25C1017.88 1613.33 1017.15 1613.38 1016.44 1613.38C1008.44 1613.38 1002.67 1610.75 999.125 1605.5C996.375 1601.38 995 1595.75 995 1588.62V1520ZM1065.19 1614C1041.6 1614 1029.81 1602.48 1029.81 1579.44C1029.81 1569.52 1033.08 1561.58 1039.62 1555.62C1045.5 1550.21 1052.21 1547.5 1059.75 1547.5C1067.96 1547.5 1074.38 1550.25 1079 1555.75C1083.29 1560.88 1085.44 1567.73 1085.44 1576.31V1581.19H1042.81C1042.81 1592.98 1047.62 1600.19 1057.25 1602.81C1059.54 1603.44 1063.06 1603.75 1067.81 1603.75C1072.6 1603.75 1077.29 1603.1 1081.88 1601.81V1612.38C1077.29 1613.46 1071.73 1614 1065.19 1614ZM1072.94 1572C1072.94 1568 1071.83 1564.62 1069.62 1561.88C1067.04 1558.71 1063.48 1557.12 1058.94 1557.12C1054.15 1557.12 1050.25 1558.65 1047.25 1561.69C1044.5 1564.52 1043.12 1567.96 1043.12 1572H1072.94ZM1128.25 1558.25C1122.04 1558.25 1116.52 1560.35 1111.69 1564.56V1613H1099.19V1548.5H1110.75L1111.62 1555.5C1118.42 1550.17 1125.44 1547.5 1132.69 1547.5C1140.35 1547.5 1145.98 1549.79 1149.56 1554.38C1153.31 1559.21 1155.19 1567 1155.19 1577.75V1613H1142.69V1577.75C1142.69 1567.42 1139.9 1561.25 1134.31 1559.25C1132.52 1558.58 1130.5 1558.25 1128.25 1558.25ZM1220.25 1612.81C1217.75 1613.6 1213.42 1614 1207.25 1614C1201.08 1614 1195.83 1613.25 1191.5 1611.75C1187.21 1610.25 1183.54 1608.04 1180.5 1605.12C1174.21 1599.08 1171.06 1590.71 1171.06 1580C1171.06 1569.62 1174.83 1561.46 1182.38 1555.5C1189.12 1550.17 1197.42 1547.5 1207.25 1547.5C1213.33 1547.5 1217.5 1547.71 1219.75 1548.12V1559.25C1216.25 1558.12 1212.25 1557.56 1207.75 1557.56C1203.29 1557.56 1199.58 1558.19 1196.62 1559.44C1193.67 1560.65 1191.25 1562.29 1189.38 1564.38C1185.83 1568.33 1184.06 1573.54 1184.06 1580C1184.06 1590.92 1188 1598.19 1195.88 1601.81C1198.67 1603.1 1201.4 1603.75 1204.06 1603.75C1206.73 1603.75 1208.77 1603.69 1210.19 1603.56C1211.65 1603.44 1213.02 1603.27 1214.31 1603.06C1217.06 1602.6 1219.04 1602.12 1220.25 1601.62V1612.81ZM1267.94 1614C1244.35 1614 1232.56 1602.48 1232.56 1579.44C1232.56 1569.52 1235.83 1561.58 1242.38 1555.62C1248.25 1550.21 1254.96 1547.5 1262.5 1547.5C1270.71 1547.5 1277.12 1550.25 1281.75 1555.75C1286.04 1560.88 1288.19 1567.73 1288.19 1576.31V1581.19H1245.56C1245.56 1592.98 1250.38 1600.19 1260 1602.81C1262.29 1603.44 1265.81 1603.75 1270.56 1603.75C1275.35 1603.75 1280.04 1603.1 1284.62 1601.81V1612.38C1280.04 1613.46 1274.48 1614 1267.94 1614ZM1275.69 1572C1275.69 1568 1274.58 1564.62 1272.38 1561.88C1269.79 1558.71 1266.23 1557.12 1261.69 1557.12C1256.9 1557.12 1253 1558.65 1250 1561.69C1247.25 1564.52 1245.88 1567.96 1245.88 1572H1275.69Z" fill="black"/>
<path d="M624.5 839C268.371 866.254 157.5 830.5 63.5 746.5C150.5 1548.5 966.5 1521 1243.5 1203C1199.83 1126 918.5 816.5 624.5 839Z" fill="#FBE85E"/>
<path d="M887.998 505.5C714.798 561.1 472.832 312.333 373.499 181C109.5 326 86.0003 635.5 68.5004 733C51.0006 830.5 475 905.5 639.5 905.5C904.5 890 1142 1122.5 1238 1194.5C1334 1107.5 1440 880 1412 712.5C1403.67 662.652 1104.5 436 887.998 505.5Z" fill="#32DEF3"/>
<path d="M857 518.5C633.4 573.7 323.5 377 292.5 235C902 -252.5 1457.5 383 1419.5 726.5C1307.5 629 1080.6 463.3 857 518.5Z" fill="#F046BD"/>
<circle cx="742.5" cy="742.5" r="735" stroke="black" stroke-width="15"/>
<circle cx="743" cy="742" r="676.5" stroke="black" stroke-width="15"/>
<path d="M500.241 283.024C495.702 271.735 471.345 258.598 410.225 296.371C349.104 334.145 233.551 467.3 183.415 529.156C148.089 565.901 135.528 662.319 367.892 754.03C600.257 845.741 622.381 868.258 643.049 912.202" stroke="black" stroke-width="14"/>
<path d="M709.763 976.796C796.026 1038.14 994.358 1162.36 1097.57 1168.49" stroke="black" stroke-width="14"/>
<path d="M1208.03 1170.31C1244.29 1141.01 1303.06 1035.02 1171.81 925.978C998.861 782.29 1028.66 867.34 829.36 501.616C806.58 468.432 745.93 436.65 614.863 456.084C577.274 461.658 520.406 381.532 524.004 323.982" stroke="black" stroke-width="14"/>
<path d="M514.323 306.532C530.924 343.497 621.14 461.036 699.78 449.376C745.792 418.796 798.491 355.463 815.419 485.992" stroke="black" stroke-width="12"/>
<path d="M243.477 555.955C333.179 572.308 561.189 660.789 755.613 883.886" stroke="black" stroke-width="10"/>
<path d="M807.757 956.018C888.013 1022.3 1076.99 1142.95 1190.83 1095.34" stroke="black" stroke-width="10"/>
<path d="M857.991 548.24C828.399 541.844 764.808 548.409 747.173 625.833" stroke="black" stroke-width="10"/>
<path d="M882.801 599.657C863.511 602.517 824.433 620.544 822.431 669.77" stroke="black" stroke-width="10"/>
<path d="M923.652 664.386C907.422 666.287 877.429 679.226 887.296 715.774" stroke="black" stroke-width="10"/>
</svg>
