<svg width="1485" height="1485" viewBox="0 0 1485 1485" fill="none" xmlns="http://www.w3.org/2000/svg">
<path d="M624.5 839C268.371 866.254 157.5 830.5 63.5 746.5C150.5 1548.5 966.5 1521 1243.5 1203C1199.83 1126 918.5 816.5 624.5 839Z" fill="#FBE85E"/>
<path d="M887.998 505.5C714.798 561.1 472.832 312.333 373.499 181C109.5 326 86.0003 635.5 68.5004 733C51.0006 830.5 475 905.5 639.5 905.5C904.5 890 1142 1122.5 1238 1194.5C1334 1107.5 1440 880 1412 712.5C1403.67 662.652 1104.5 436 887.998 505.5Z" fill="#32DEF3"/>
<path d="M857 518.5C633.4 573.7 323.5 377 292.5 235C902 -252.5 1457.5 383 1419.5 726.5C1307.5 629 1080.6 463.3 857 518.5Z" fill="#F046BD"/>
<circle cx="742.5" cy="742.5" r="735" stroke="black" stroke-width="15"/>
<circle cx="743" cy="742" r="676.5" stroke="black" stroke-width="15"/>
<path d="M500.241 283.024C495.702 271.735 471.345 258.598 410.225 296.371C349.104 334.145 233.551 467.3 183.415 529.156C148.089 565.901 135.528 662.319 367.892 754.03C600.257 845.741 622.381 868.258 643.049 912.202" stroke="black" stroke-width="14"/>
<path d="M709.763 976.796C796.026 1038.14 994.358 1162.36 1097.57 1168.49" stroke="black" stroke-width="14"/>
<path d="M1208.03 1170.31C1244.29 1141.01 1303.06 1035.02 1171.81 925.978C998.861 782.29 1028.66 867.34 829.36 501.616C806.58 468.432 745.93 436.65 614.863 456.084C577.274 461.658 520.406 381.532 524.004 323.982" stroke="black" stroke-width="14"/>
<path d="M514.323 306.532C530.924 343.497 621.14 461.036 699.78 449.376C745.792 418.796 798.491 355.463 815.419 485.992" stroke="black" stroke-width="12"/>
<path d="M243.477 555.955C333.179 572.308 561.189 660.789 755.613 883.886" stroke="black" stroke-width="10"/>
<path d="M807.757 956.018C888.013 1022.3 1076.99 1142.95 1190.83 1095.34" stroke="black" stroke-width="10"/>
<path d="M857.991 548.24C828.399 541.844 764.808 548.409 747.173 625.833" stroke="black" stroke-width="10"/>
<path d="M882.801 599.657C863.511 602.517 824.433 620.544 822.431 669.77" stroke="black" stroke-width="10"/>
<path d="M923.652 664.386C907.422 666.287 877.429 679.226 887.296 715.774" stroke="black" stroke-width="10"/>
</svg>
